<svg width="30" height="30" viewBox="0 0 30 30" fill="none" xmlns="http://www.w3.org/2000/svg">
<path d="M11.4286 8.10612C13.2311 6.529 16.1534 6.529 17.9558 8.10612C19.7582 9.68324 19.7582 12.2403 17.9558 13.8174C17.6421 14.0919 17.2944 14.3186 16.9247 14.4975C15.7775 15.0527 14.6922 16.0334 14.6922 17.3079V18.4617M28.538 15.0002C28.538 22.6472 22.3389 28.8464 14.6919 28.8464C7.04484 28.8464 0.845703 22.6472 0.845703 15.0002C0.845703 7.35319 7.04484 1.15405 14.6919 1.15405C22.3389 1.15405 28.538 7.35319 28.538 15.0002ZM14.6919 23.0771H14.7034V23.0887H14.6919V23.0771Z" stroke="#BDBDBD" stroke-width="1.5" stroke-linecap="round" stroke-linejoin="round"/>
</svg>
