<svg width="307" height="48" viewBox="0 0 307 48" fill="none" xmlns="http://www.w3.org/2000/svg">
<g clip-path="url(#clip0_171_3222)">
<path d="M7.25161 36.2853C9.19515 37.6424 12.3463 37.6424 14.2899 36.2853C16.2333 34.9283 16.2333 32.7282 14.2899 31.3712C12.3463 30.0141 9.19515 30.0141 7.25161 31.3712C5.30806 32.7282 5.30806 34.9283 7.25161 36.2853Z" fill="#886EEA"/>
<path d="M27.4237 17.8574C30.3391 19.8928 35.0657 19.8928 37.9811 17.8574C40.8963 15.8218 40.8963 12.5217 37.9811 10.4862C35.0657 8.45066 30.3391 8.45066 27.4237 10.4862C24.5085 12.5217 24.5085 15.8218 27.4237 17.8574Z" fill="#886EEA"/>
<path d="M16.7156 27.0714C19.145 28.7675 23.0839 28.7675 25.5134 27.0714C27.9428 25.3751 27.9428 22.6249 25.5134 20.9286C23.0839 19.2325 19.145 19.2325 16.7156 20.9286C14.2862 22.6249 14.2862 25.3751 16.7156 27.0714Z" fill="#886EEA"/>
<path d="M1.09324 25.8428C2.5509 26.8605 4.91424 26.8605 6.3719 25.8428C7.82955 24.8251 7.82955 23.175 6.3719 22.1572C4.91424 21.1394 2.5509 21.1394 1.09324 22.1572C-0.364416 23.175 -0.364414 24.8251 1.09324 25.8428Z" fill="#886EEA"/>
<path d="M16.7156 7.41484C19.145 9.11108 23.0839 9.11108 25.5134 7.41484C27.9428 5.71859 27.9428 2.96843 25.5134 1.27219C23.0839 -0.424062 19.145 -0.424063 16.7156 1.27219C14.2862 2.96843 14.2862 5.71859 16.7156 7.41484Z" fill="#886EEA"/>
<path d="M7.2516 16.6288C9.19515 17.9858 12.3463 17.9858 14.2899 16.6288C16.2333 15.2718 16.2333 13.0717 14.2899 11.7147C12.3463 10.3577 9.19515 10.3577 7.2516 11.7147C5.30805 13.0717 5.30807 15.2718 7.2516 16.6288Z" fill="#886EEA"/>
<path d="M16.7156 46.7279C19.145 48.424 23.0839 48.424 25.5134 46.7279C27.9428 45.0316 27.9428 42.2814 25.5134 40.5851C23.0839 38.8889 19.145 38.8889 16.7156 40.5851C14.2862 42.2814 14.2862 45.0316 16.7156 46.7279Z" fill="#886EEA"/>
<path d="M40.2558 27.6856C43.1712 29.7211 47.8979 29.7211 50.8131 27.6856C53.7285 25.6502 53.7285 22.3499 50.8131 20.3145C47.8979 18.2789 43.1712 18.2789 40.2558 20.3145C37.3405 22.3499 37.3405 25.6502 40.2558 27.6856Z" fill="#886EEA"/>
<path d="M27.4237 37.5138C30.3391 39.5494 35.0657 39.5494 37.9811 37.5138C40.8963 35.4783 40.8963 32.1782 37.9811 30.1426C35.0657 28.1072 30.3391 28.1072 27.4237 30.1426C24.5085 32.1782 24.5085 35.4783 27.4237 37.5138Z" fill="#886EEA"/>
</g>
<path d="M96.92 15.248V32H93.56V21.104L89.072 32H86.528L82.016 21.104V32H78.656V15.248H82.472L87.8 27.704L93.128 15.248H96.92ZM106.146 32.216C104.866 32.216 103.714 31.936 102.69 31.376C101.666 30.8 100.858 29.992 100.266 28.952C99.6899 27.912 99.4019 26.712 99.4019 25.352C99.4019 23.992 99.6979 22.792 100.29 21.752C100.898 20.712 101.722 19.912 102.762 19.352C103.802 18.776 104.962 18.488 106.242 18.488C107.522 18.488 108.682 18.776 109.722 19.352C110.762 19.912 111.578 20.712 112.17 21.752C112.778 22.792 113.082 23.992 113.082 25.352C113.082 26.712 112.77 27.912 112.146 28.952C111.538 29.992 110.706 30.8 109.65 31.376C108.61 31.936 107.442 32.216 106.146 32.216ZM106.146 29.288C106.754 29.288 107.322 29.144 107.85 28.856C108.394 28.552 108.826 28.104 109.146 27.512C109.466 26.92 109.626 26.2 109.626 25.352C109.626 24.088 109.29 23.12 108.618 22.448C107.962 21.76 107.154 21.416 106.194 21.416C105.234 21.416 104.426 21.76 103.77 22.448C103.13 23.12 102.81 24.088 102.81 25.352C102.81 26.616 103.122 27.592 103.746 28.28C104.386 28.952 105.186 29.288 106.146 29.288ZM122.915 18.512C124.499 18.512 125.779 19.016 126.755 20.024C127.731 21.016 128.219 22.408 128.219 24.2V32H124.859V24.656C124.859 23.6 124.595 22.792 124.067 22.232C123.539 21.656 122.819 21.368 121.907 21.368C120.979 21.368 120.243 21.656 119.699 22.232C119.171 22.792 118.907 23.6 118.907 24.656V32H115.547V18.704H118.907V20.36C119.355 19.784 119.923 19.336 120.611 19.016C121.315 18.68 122.083 18.512 122.915 18.512ZM133.118 17.12C132.526 17.12 132.03 16.936 131.63 16.568C131.246 16.184 131.054 15.712 131.054 15.152C131.054 14.592 131.246 14.128 131.63 13.76C132.03 13.376 132.526 13.184 133.118 13.184C133.71 13.184 134.198 13.376 134.582 13.76C134.982 14.128 135.182 14.592 135.182 15.152C135.182 15.712 134.982 16.184 134.582 16.568C134.198 16.936 133.71 17.12 133.118 17.12ZM134.774 18.704V32H131.414V18.704H134.774ZM142.006 21.464V27.896C142.006 28.344 142.11 28.672 142.318 28.88C142.542 29.072 142.91 29.168 143.422 29.168H144.982V32H142.87C140.038 32 138.622 30.624 138.622 27.872V21.464H137.038V18.704H138.622V15.416H142.006V18.704H144.982V21.464H142.006ZM153.302 32.216C152.022 32.216 150.87 31.936 149.846 31.376C148.822 30.8 148.014 29.992 147.422 28.952C146.846 27.912 146.558 26.712 146.558 25.352C146.558 23.992 146.854 22.792 147.446 21.752C148.054 20.712 148.878 19.912 149.918 19.352C150.958 18.776 152.118 18.488 153.398 18.488C154.678 18.488 155.838 18.776 156.878 19.352C157.918 19.912 158.734 20.712 159.326 21.752C159.934 22.792 160.238 23.992 160.238 25.352C160.238 26.712 159.926 27.912 159.302 28.952C158.694 29.992 157.862 30.8 156.806 31.376C155.766 31.936 154.598 32.216 153.302 32.216ZM153.302 29.288C153.91 29.288 154.478 29.144 155.006 28.856C155.55 28.552 155.982 28.104 156.302 27.512C156.622 26.92 156.782 26.2 156.782 25.352C156.782 24.088 156.446 23.12 155.774 22.448C155.118 21.76 154.31 21.416 153.35 21.416C152.39 21.416 151.582 21.76 150.926 22.448C150.286 23.12 149.966 24.088 149.966 25.352C149.966 26.616 150.278 27.592 150.902 28.28C151.542 28.952 152.342 29.288 153.302 29.288ZM166.063 20.768C166.495 20.064 167.055 19.512 167.743 19.112C168.447 18.712 169.247 18.512 170.143 18.512V22.04H169.255C168.199 22.04 167.399 22.288 166.855 22.784C166.327 23.28 166.063 24.144 166.063 25.376V32H162.703V18.704H166.063V20.768ZM174.11 17.12C173.518 17.12 173.022 16.936 172.622 16.568C172.238 16.184 172.046 15.712 172.046 15.152C172.046 14.592 172.238 14.128 172.622 13.76C173.022 13.376 173.518 13.184 174.11 13.184C174.702 13.184 175.19 13.376 175.574 13.76C175.974 14.128 176.174 14.592 176.174 15.152C176.174 15.712 175.974 16.184 175.574 16.568C175.19 16.936 174.702 17.12 174.11 17.12ZM175.766 18.704V32H172.406V18.704H175.766ZM186.454 18.512C188.038 18.512 189.318 19.016 190.294 20.024C191.27 21.016 191.758 22.408 191.758 24.2V32H188.398V24.656C188.398 23.6 188.134 22.792 187.606 22.232C187.078 21.656 186.358 21.368 185.446 21.368C184.518 21.368 183.782 21.656 183.238 22.232C182.71 22.792 182.446 23.6 182.446 24.656V32H179.086V18.704H182.446V20.36C182.894 19.784 183.462 19.336 184.15 19.016C184.854 18.68 185.622 18.512 186.454 18.512ZM200.161 18.488C201.153 18.488 202.025 18.688 202.777 19.088C203.529 19.472 204.121 19.976 204.553 20.6V18.704H207.937V32.096C207.937 33.328 207.689 34.424 207.193 35.384C206.697 36.36 205.953 37.128 204.961 37.688C203.969 38.264 202.769 38.552 201.361 38.552C199.473 38.552 197.921 38.112 196.705 37.232C195.505 36.352 194.825 35.152 194.665 33.632H198.001C198.177 34.24 198.553 34.72 199.129 35.072C199.721 35.44 200.433 35.624 201.265 35.624C202.241 35.624 203.033 35.328 203.641 34.736C204.249 34.16 204.553 33.28 204.553 32.096V30.032C204.121 30.656 203.521 31.176 202.753 31.592C202.001 32.008 201.137 32.216 200.161 32.216C199.041 32.216 198.017 31.928 197.089 31.352C196.161 30.776 195.425 29.968 194.881 28.928C194.353 27.872 194.089 26.664 194.089 25.304C194.089 23.96 194.353 22.768 194.881 21.728C195.425 20.688 196.153 19.888 197.065 19.328C197.993 18.768 199.025 18.488 200.161 18.488ZM204.553 25.352C204.553 24.536 204.393 23.84 204.073 23.264C203.753 22.672 203.321 22.224 202.777 21.92C202.233 21.6 201.649 21.44 201.025 21.44C200.401 21.44 199.825 21.592 199.297 21.896C198.769 22.2 198.337 22.648 198.001 23.24C197.681 23.816 197.521 24.504 197.521 25.304C197.521 26.104 197.681 26.808 198.001 27.416C198.337 28.008 198.769 28.464 199.297 28.784C199.841 29.104 200.417 29.264 201.025 29.264C201.649 29.264 202.233 29.112 202.777 28.808C203.321 28.488 203.753 28.04 204.073 27.464C204.393 26.872 204.553 26.168 204.553 25.352ZM222.721 32.168C221.553 32.168 220.497 31.968 219.553 31.568C218.625 31.168 217.889 30.592 217.345 29.84C216.801 29.088 216.521 28.2 216.505 27.176H220.105C220.153 27.864 220.393 28.408 220.825 28.808C221.273 29.208 221.881 29.408 222.649 29.408C223.433 29.408 224.049 29.224 224.497 28.856C224.945 28.472 225.169 27.976 225.169 27.368C225.169 26.872 225.017 26.464 224.713 26.144C224.409 25.824 224.025 25.576 223.561 25.4C223.113 25.208 222.489 25 221.689 24.776C220.601 24.456 219.713 24.144 219.025 23.84C218.353 23.52 217.769 23.048 217.273 22.424C216.793 21.784 216.553 20.936 216.553 19.88C216.553 18.888 216.801 18.024 217.297 17.288C217.793 16.552 218.489 15.992 219.385 15.608C220.281 15.208 221.305 15.008 222.457 15.008C224.185 15.008 225.585 15.432 226.657 16.28C227.745 17.112 228.345 18.28 228.457 19.784H224.761C224.729 19.208 224.481 18.736 224.017 18.368C223.569 17.984 222.969 17.792 222.217 17.792C221.561 17.792 221.033 17.96 220.633 18.296C220.249 18.632 220.057 19.12 220.057 19.76C220.057 20.208 220.201 20.584 220.489 20.888C220.793 21.176 221.161 21.416 221.593 21.608C222.041 21.784 222.665 21.992 223.465 22.232C224.553 22.552 225.441 22.872 226.129 23.192C226.817 23.512 227.409 23.992 227.905 24.632C228.401 25.272 228.649 26.112 228.649 27.152C228.649 28.048 228.417 28.88 227.953 29.648C227.489 30.416 226.809 31.032 225.913 31.496C225.017 31.944 223.953 32.168 222.721 32.168ZM244.282 18.704L236.05 38.288H232.474L235.354 31.664L230.026 18.704H233.794L237.226 27.992L240.706 18.704H244.282ZM251.182 32.216C250.094 32.216 249.118 32.024 248.254 31.64C247.39 31.24 246.702 30.704 246.19 30.032C245.694 29.36 245.422 28.616 245.374 27.8H248.758C248.822 28.312 249.07 28.736 249.502 29.072C249.95 29.408 250.502 29.576 251.158 29.576C251.798 29.576 252.294 29.448 252.646 29.192C253.014 28.936 253.198 28.608 253.198 28.208C253.198 27.776 252.974 27.456 252.526 27.248C252.094 27.024 251.398 26.784 250.438 26.528C249.446 26.288 248.63 26.04 247.99 25.784C247.366 25.528 246.822 25.136 246.358 24.608C245.91 24.08 245.686 23.368 245.686 22.472C245.686 21.736 245.894 21.064 246.31 20.456C246.742 19.848 247.35 19.368 248.134 19.016C248.934 18.664 249.87 18.488 250.942 18.488C252.526 18.488 253.79 18.888 254.734 19.688C255.678 20.472 256.198 21.536 256.294 22.88H253.078C253.03 22.352 252.806 21.936 252.406 21.632C252.022 21.312 251.502 21.152 250.846 21.152C250.238 21.152 249.766 21.264 249.43 21.488C249.11 21.712 248.95 22.024 248.95 22.424C248.95 22.872 249.174 23.216 249.622 23.456C250.07 23.68 250.766 23.912 251.71 24.152C252.67 24.392 253.462 24.64 254.086 24.896C254.71 25.152 255.246 25.552 255.694 26.096C256.158 26.624 256.398 27.328 256.414 28.208C256.414 28.976 256.198 29.664 255.766 30.272C255.35 30.88 254.742 31.36 253.942 31.712C253.158 32.048 252.238 32.216 251.182 32.216ZM263.084 21.464V27.896C263.084 28.344 263.188 28.672 263.396 28.88C263.62 29.072 263.988 29.168 264.5 29.168H266.06V32H263.948C261.116 32 259.7 30.624 259.7 27.872V21.464H258.116V18.704H259.7V15.416H263.084V18.704H266.06V21.464H263.084ZM280.836 25.064C280.836 25.544 280.804 25.976 280.74 26.36H271.02C271.1 27.32 271.436 28.072 272.028 28.616C272.62 29.16 273.348 29.432 274.212 29.432C275.46 29.432 276.348 28.896 276.876 27.824H280.5C280.116 29.104 279.38 30.16 278.292 30.992C277.204 31.808 275.868 32.216 274.284 32.216C273.004 32.216 271.852 31.936 270.828 31.376C269.82 30.8 269.028 29.992 268.452 28.952C267.892 27.912 267.612 26.712 267.612 25.352C267.612 23.976 267.892 22.768 268.452 21.728C269.012 20.688 269.796 19.888 270.804 19.328C271.812 18.768 272.972 18.488 274.284 18.488C275.548 18.488 276.676 18.76 277.668 19.304C278.676 19.848 279.452 20.624 279.996 21.632C280.556 22.624 280.836 23.768 280.836 25.064ZM277.356 24.104C277.34 23.24 277.028 22.552 276.42 22.04C275.812 21.512 275.068 21.248 274.188 21.248C273.356 21.248 272.652 21.504 272.076 22.016C271.516 22.512 271.172 23.208 271.044 24.104H277.356ZM299.801 18.512C301.433 18.512 302.745 19.016 303.737 20.024C304.745 21.016 305.249 22.408 305.249 24.2V32H301.889V24.656C301.889 23.616 301.625 22.824 301.097 22.28C300.569 21.72 299.849 21.44 298.937 21.44C298.025 21.44 297.297 21.72 296.753 22.28C296.225 22.824 295.961 23.616 295.961 24.656V32H292.601V24.656C292.601 23.616 292.337 22.824 291.809 22.28C291.281 21.72 290.561 21.44 289.649 21.44C288.721 21.44 287.985 21.72 287.441 22.28C286.913 22.824 286.649 23.616 286.649 24.656V32H283.289V18.704H286.649V20.312C287.081 19.752 287.633 19.312 288.305 18.992C288.993 18.672 289.745 18.512 290.561 18.512C291.601 18.512 292.529 18.736 293.345 19.184C294.161 19.616 294.793 20.24 295.241 21.056C295.673 20.288 296.297 19.672 297.113 19.208C297.945 18.744 298.841 18.512 299.801 18.512Z" fill="white"/>
<defs>
<clipPath id="clip0_171_3222">
<rect width="53" height="48" fill="white"/>
</clipPath>
</defs>
</svg>
