<svg width="37" height="38" viewBox="0 0 37 38" fill="none" xmlns="http://www.w3.org/2000/svg">
<path fill-rule="evenodd" clip-rule="evenodd" d="M3.76855 7.46176C3.76855 6.69706 4.38847 6.07715 5.15317 6.07715H31.9224C32.6871 6.07715 33.307 6.69706 33.307 7.46176C33.307 8.22647 32.6871 8.84638 31.9224 8.84638H5.15317C4.38847 8.84638 3.76855 8.22647 3.76855 7.46176ZM3.76855 15.1541C3.76855 14.3894 4.38847 13.7695 5.15317 13.7695H31.9224C32.6871 13.7695 33.307 14.3894 33.307 15.1541C33.307 15.9188 32.6871 16.5387 31.9224 16.5387H5.15317C4.38847 16.5387 3.76855 15.9188 3.76855 15.1541ZM3.76855 22.8464C3.76855 22.0817 4.38847 21.4618 5.15317 21.4618H31.9224C32.6871 21.4618 33.307 22.0817 33.307 22.8464C33.307 23.6111 32.6871 24.231 31.9224 24.231H5.15317C4.38847 24.231 3.76855 23.6111 3.76855 22.8464ZM3.76855 30.5387C3.76855 29.774 4.38847 29.1541 5.15317 29.1541H31.9224C32.6871 29.1541 33.307 29.774 33.307 30.5387C33.307 31.3034 32.6871 31.9233 31.9224 31.9233H5.15317C4.38847 31.9233 3.76855 31.3034 3.76855 30.5387Z" fill="#BDBDBD"/>
</svg>
