<svg width="28" height="31" viewBox="0 0 28 31" fill="none" xmlns="http://www.w3.org/2000/svg">
<path d="M18.0102 23.3564C20.925 23.0107 23.7356 22.3254 26.4014 21.3413C24.191 18.8877 22.8455 15.6394 22.8455 12.0769V10.9987C22.8458 10.9735 22.8459 10.9483 22.8459 10.923C22.8459 5.82502 18.7131 1.69226 13.6151 1.69226C8.51707 1.69226 4.38431 5.82502 4.38431 10.923L4.38401 12.0769C4.38401 15.6394 3.03858 18.8877 0.828125 21.3413C3.49417 22.3255 6.30498 23.0108 9.21991 23.3565M18.0102 23.3564C16.5689 23.5274 15.1021 23.6153 13.6148 23.6153C12.1277 23.6153 10.6611 23.5274 9.21991 23.3565M18.0102 23.3564C18.1532 23.8017 18.2305 24.2764 18.2305 24.7692C18.2305 27.3182 16.1641 29.3846 13.6151 29.3846C11.0661 29.3846 8.9997 27.3182 8.9997 24.7692C8.9997 24.2764 9.07692 23.8017 9.21991 23.3565" stroke="#BDBDBD" stroke-width="1.5" stroke-linecap="round" stroke-linejoin="round"/>
</svg>
