<svg width="23" height="23" viewBox="0 0 23 23" fill="none" xmlns="http://www.w3.org/2000/svg">
<path d="M12.9235 1.76914C12.9235 1.00443 12.3035 0.384521 11.5388 0.384521C10.7741 0.384521 10.1542 1.00443 10.1542 1.76914V10.0768H1.84653C1.08183 10.0768 0.461914 10.6967 0.461914 11.4614C0.461914 12.2261 1.08183 12.8461 1.84653 12.8461L10.1542 12.8461V21.1538C10.1542 21.9185 10.7741 22.5384 11.5388 22.5384C12.3035 22.5384 12.9235 21.9185 12.9235 21.1538V12.8461L21.2311 12.8461C21.9958 12.8461 22.6158 12.2261 22.6158 11.4614C22.6158 10.6967 21.9958 10.0768 21.2311 10.0768H12.9235V1.76914Z" fill="#BDBDBD"/>
</svg>
